# Blender v3.0.0 OBJ File: 'cabbage.blend'
# www.blender.org
mtllib cabbage.mtl
o Sphere.001_Sphere.003
v -0.322859 1.830354 0.014059
v -0.624353 1.483451 0.143268
v -0.734708 1.009573 0.190562
v -0.624353 0.535695 0.143268
v -0.322859 0.188793 0.014059
v -0.278588 1.830354 -0.451392
v -0.547674 1.483451 -0.662916
v -0.646166 1.009573 -0.740340
v -0.547674 0.535695 -0.662916
v -0.278588 0.188793 -0.451392
v 0.133260 1.830354 -0.627895
v 0.165669 1.483451 -0.968628
v 0.177531 1.009573 -1.093346
v 0.165669 0.535695 -0.968628
v 0.133260 0.188793 -0.627895
v 0.500838 1.830354 -0.338947
v 0.802332 1.483451 -0.468156
v 0.912687 1.009573 -0.515450
v 0.802332 0.535695 -0.468156
v 0.500838 0.188793 -0.338947
v 0.088990 0.115726 -0.162444
v 0.088990 1.957329 -0.162444
v 0.456567 1.830354 0.126504
v 0.725653 1.483451 0.338029
v 0.824145 1.009573 0.415452
v 0.725653 0.535695 0.338029
v 0.456567 0.188793 0.126504
v 0.044719 1.830354 0.303007
v 0.012310 1.483451 0.643741
v 0.000448 1.009573 0.768458
v 0.012310 0.535695 0.643741
v 0.044719 0.188793 0.303007
v -0.309634 1.804980 0.008392
v -0.601447 1.469216 0.133452
v -0.708258 1.010555 0.179227
v -0.601447 0.551893 0.133452
v -0.309634 0.216130 0.008392
v -0.266785 1.804980 -0.442113
v -0.527231 1.469216 -0.646846
v -0.622560 1.010555 -0.721783
v -0.527230 0.551893 -0.646846
v -0.266785 0.216130 -0.442113
v 0.131839 1.804980 -0.612949
v 0.163206 1.469216 -0.942741
v 0.174688 1.010555 -1.063454
v 0.163206 0.551893 -0.942741
v 0.131839 0.216130 -0.612949
v 0.487613 1.804980 -0.333279
v 0.779426 1.469216 -0.458339
v 0.886237 1.010555 -0.504114
v 0.779426 0.551893 -0.458339
v 0.487614 0.216130 -0.333279
v 0.088990 1.927878 -0.162444
v 0.444764 1.804980 0.117226
v 0.705209 1.469216 0.321958
v 0.800539 1.010555 0.396896
v 0.705210 0.551893 0.321958
v 0.444764 0.216130 0.117226
v 0.046140 1.804980 0.288061
v 0.014772 1.469216 0.617854
v 0.003291 1.010555 0.738566
v 0.014773 0.551893 0.617854
v 0.046140 0.216130 0.288061
vt 0.333333 0.166667
vt 0.333333 0.333333
vt 0.333333 0.333333
vt 0.333333 0.166667
vt 0.666667 0.333333
vt 0.666667 0.500000
vt 0.666667 0.500000
vt 0.666667 0.333333
vt 0.833333 0.833333
vt 0.833333 0.666667
vt 0.833333 0.666667
vt 0.833333 0.833333
vt 0.583333 0.000000
vt 0.666667 0.166667
vt 0.500000 0.166667
vt 0.333333 0.500000
vt 0.333333 0.500000
vt 0.333333 0.833333
vt 0.416667 1.000000
vt 0.416667 1.000000
vt 0.333333 0.833333
vt 0.500000 0.833333
vt 0.416667 0.000000
vt 0.500000 0.333333
vt 0.500000 0.500000
vt 0.500000 0.666667
vt 0.333333 0.666667
vt 0.250000 0.000000
vt 0.166667 0.166667
vt 0.666667 0.666667
vt 0.666667 0.666667
vt 0.333333 0.666667
vt 0.166667 0.166667
vt 0.666667 0.833333
vt 0.666667 0.833333
vt 0.083333 0.000000
vt 0.000000 0.166667
vt 0.166667 0.333333
vt 0.166667 0.500000
vt 0.000000 0.500000
vt 0.000000 0.333333
vt 0.166667 0.666667
vt 0.166667 0.833333
vt 0.000000 0.833333
vt 0.000000 0.666667
vt 0.083333 1.000000
vt 0.916667 0.000000
vt 1.000000 0.166667
vt 0.833333 0.166667
vt 0.500000 0.833333
vt 0.166667 0.333333
vt 0.750000 1.000000
vt 0.750000 1.000000
vt 0.166667 0.500000
vt 0.166667 0.666667
vt 0.833333 0.333333
vt 0.833333 0.500000
vt 0.750000 0.000000
vt 0.666667 0.166667
vt 0.500000 0.333333
vt 0.500000 0.166667
vt 0.500000 0.666667
vt 0.500000 0.500000
vt 0.583333 1.000000
vt 0.166667 0.833333
vt 0.250000 1.000000
vt 1.000000 0.333333
vt 1.000000 0.500000
vt 0.833333 0.500000
vt 0.833333 0.333333
vt 1.000000 0.666667
vt 1.000000 0.833333
vt 1.000000 0.166667
vt 0.833333 0.166667
vt 0.916667 1.000000
vt 0.083333 1.000000
vt 0.000000 0.833333
vt 0.000000 0.666667
vt 0.000000 0.500000
vt 0.000000 0.333333
vt 0.000000 0.166667
vn 0.9955 -0.0000 0.0947
vn -0.3939 0.0000 -0.9191
vn -0.1818 -0.9832 -0.0173
vn -0.1164 0.9553 -0.2717
vn -0.0690 -0.9845 -0.1611
vn -0.3837 -0.2260 -0.8954
vn -0.2978 0.6546 -0.6948
vn -0.2978 -0.6546 -0.6948
vn -0.3837 0.2260 -0.8954
vn 0.1129 -0.9832 -0.1436
vn 0.5610 0.4194 -0.7137
vn 0.1818 -0.9832 0.0173
vn 0.9718 -0.2171 0.0924
vn 0.7661 0.6386 0.0729
vn 0.7661 -0.6386 0.0729
vn 0.9718 0.2171 0.0924
vn 0.3059 0.9516 0.0291
vn 0.0690 -0.9845 0.1611
vn -0.6180 0.0000 0.7862
vn -0.6033 -0.2171 0.7674
vn -0.4756 0.6386 0.6050
vn -0.4756 -0.6386 0.6050
vn -0.6033 0.2171 0.7674
vn -0.1899 0.9516 0.2415
vn -0.1129 -0.9832 0.1436
vn -0.7661 -0.6386 -0.0729
vn -0.9718 0.2171 -0.0924
vn -0.3059 0.9516 -0.0291
vn -0.9718 -0.2171 -0.0924
vn -0.7661 0.6386 -0.0729
vn 0.6033 -0.2171 -0.7674
vn 0.4756 0.6386 -0.6050
vn 0.4756 -0.6386 -0.6050
vn 0.6033 0.2171 -0.7674
vn 0.1899 0.9516 -0.2415
vn 0.3837 -0.2260 0.8954
vn 0.2978 0.6546 0.6948
vn 0.2978 -0.6546 0.6948
vn 0.3837 0.2260 0.8954
vn 0.1164 0.9553 0.2717
vn 0.3548 0.4342 0.8280
vn -0.9037 0.4194 -0.0860
g Sphere.001_Sphere.003_Material.001
usemtl Material.001
s off
f 15/1/1 14/2/1 46/3/1 47/4/1
f 4/5/2 3/6/2 35/7/2 36/8/2
f 28/9/1 29/10/1 60/11/1 59/12/1
f 21/13/3 5/14/3 10/15/3
f 14/2/1 13/16/1 45/17/1 46/3/1
f 11/18/1 22/19/1 53/20/1 43/21/1
f 6/22/4 22/19/4 11/18/4
f 21/23/5 10/15/5 15/1/5
f 9/24/6 8/25/6 13/16/6 14/2/6
f 7/26/7 6/22/7 11/18/7 12/27/7
f 10/15/8 9/24/8 14/2/8 15/1/8
f 8/25/9 7/26/9 12/27/9 13/16/9
f 21/28/10 15/1/10 20/29/10
f 3/6/2 2/30/2 34/31/2 35/7/2
f 13/16/1 12/27/1 44/32/1 45/17/1
f 20/29/11 15/1/11 47/4/11 52/33/11
f 2/30/2 1/34/2 33/35/2 34/31/2
f 12/27/1 11/18/1 43/21/1 44/32/1
f 21/36/12 20/29/12 27/37/12
f 19/38/13 18/39/13 25/40/13 26/41/13
f 17/42/14 16/43/14 23/44/14 24/45/14
f 20/29/15 19/38/15 26/41/15 27/37/15
f 18/39/16 17/42/16 24/45/16 25/40/16
f 16/43/17 22/46/17 23/44/17
f 21/47/18 27/48/18 32/49/18
f 22/19/19 6/22/19 38/50/19 53/20/19
f 19/38/2 20/29/2 52/33/2 51/51/2
f 1/34/2 22/52/2 53/53/2 33/35/2
f 18/39/2 19/38/2 51/51/2 50/54/2
f 17/42/2 18/39/2 50/54/2 49/55/2
f 31/56/20 30/57/20 3/6/20 4/5/20
f 29/10/21 28/9/21 1/34/21 2/30/21
f 32/49/22 31/56/22 4/5/22 5/14/22
f 30/57/23 29/10/23 2/30/23 3/6/23
f 28/9/24 22/52/24 1/34/24
f 21/58/25 32/49/25 5/14/25
f 37/59/26 36/8/26 41/60/26 42/61/26
f 35/7/27 34/31/27 39/62/27 40/63/27
f 33/35/28 53/64/28 38/50/28
f 36/8/29 35/7/29 40/63/29 41/60/29
f 34/31/30 33/35/30 38/50/30 39/62/30
f 46/3/31 45/17/31 50/54/31 51/51/31
f 44/32/32 43/21/32 48/65/32 49/55/32
f 47/4/33 46/3/33 51/51/33 52/33/33
f 45/17/34 44/32/34 49/55/34 50/54/34
f 43/21/35 53/66/35 48/65/35
f 57/67/36 56/68/36 61/69/36 62/70/36
f 55/71/37 54/72/37 59/12/37 60/11/37
f 58/73/38 57/67/38 62/70/38 63/74/38
f 56/68/39 55/71/39 60/11/39 61/69/39
f 54/72/40 53/75/40 59/12/40
f 29/10/1 30/57/1 61/69/1 60/11/1
f 5/14/2 4/5/2 36/8/2 37/59/2
f 22/46/2 16/43/2 48/65/2 53/76/2
f 30/57/1 31/56/1 62/70/1 61/69/1
f 6/22/19 7/26/19 39/62/19 38/50/19
f 31/56/1 32/49/1 63/74/1 62/70/1
f 7/26/19 8/25/19 40/63/19 39/62/19
f 23/44/19 22/46/19 53/76/19 54/77/19
f 22/52/1 28/9/1 59/12/1 53/53/1
f 32/49/41 27/48/41 58/73/41 63/74/41
f 8/25/19 9/24/19 41/60/19 40/63/19
f 24/45/19 23/44/19 54/77/19 55/78/19
f 9/24/19 10/15/19 42/61/19 41/60/19
f 25/40/19 24/45/19 55/78/19 56/79/19
f 10/15/42 5/14/42 37/59/42 42/61/42
f 26/41/19 25/40/19 56/79/19 57/80/19
f 16/43/2 17/42/2 49/55/2 48/65/2
f 27/37/19 26/41/19 57/80/19 58/81/19
o Sphere.002_Sphere.005
v -0.522185 1.947883 -0.035352
v -0.736967 1.557889 0.146393
v -0.859490 1.082646 0.224318
v -0.727047 0.549904 0.171065
v -0.365206 0.159909 0.025577
v -0.447158 1.947883 -0.562785
v -0.607017 1.557889 -0.767147
v -0.709436 1.082646 -0.830548
v -0.597097 0.549904 -0.742475
v -0.290179 0.159909 -0.501857
v 0.194184 1.947883 -0.725270
v 0.249108 1.557889 -1.111378
v 0.279131 1.082646 -1.228031
v 0.259028 0.549904 -1.086706
v 0.204104 0.159909 -0.700598
v 0.129078 0.039328 -0.173165
v -0.247511 2.079958 -0.254428
v -0.119246 1.947883 0.358192
v -0.010793 1.557889 0.715704
v -0.020976 1.082646 0.881701
v -0.000873 0.549904 0.740376
v 0.054051 0.159909 0.354268
v 0.468168 0.143520 0.150960
vt 0.666667 0.166667
vt 0.666667 0.333333
vt 0.500000 0.333333
vt 0.500000 0.166667
vt 0.666667 0.500000
vt 0.666667 0.666667
vt 0.500000 0.666667
vt 0.500000 0.500000
vt 0.666667 0.833333
vt 0.583333 1.000000
vt 0.500000 0.833333
vt 0.583333 0.000000
vt 0.416667 1.000000
vt 0.333333 0.833333
vt 0.416667 0.000000
vt 0.333333 0.166667
vt 0.333333 0.500000
vt 0.333333 0.333333
vt 0.333333 0.666667
vt 0.833333 0.333333
vt 0.833333 0.500000
vt 0.833333 0.666667
vt 0.833333 0.833333
vt 0.833333 0.166667
vt 0.750000 1.000000
vt 0.750000 0.000000
vt 0.000000 0.000000
vn -0.7484 -0.6547 -0.1065
vn -0.9644 0.2261 -0.1372
vn -0.4757 0.8770 -0.0677
vn -0.2503 -0.9675 -0.0356
vn -0.9644 -0.2260 -0.1372
vn -0.8927 0.4324 -0.1270
vn -0.0872 0.9349 -0.3440
vn -0.0943 -0.9675 -0.2346
vn -0.3634 -0.2260 -0.9038
vn -0.2820 -0.6547 -0.7014
vn -0.3655 0.2000 -0.9091
vn -0.2552 0.6052 -0.7541
vn -0.6010 -0.2260 0.7666
vn -0.5528 0.5236 0.6483
vn -0.4664 -0.6547 0.5949
vn -0.5929 0.2768 0.7562
vn -0.2475 0.9351 0.2534
vn -0.1560 -0.9675 0.1990
vn 0.0757 -0.9697 0.2325
vn 0.3162 -0.6446 0.6961
g Sphere.002_Sphere.005_Material.002
usemtl Material.002
s off
f 68/82/43 67/83/43 72/84/43 73/85/43
f 66/86/44 65/87/44 70/88/44 71/89/44
f 64/90/45 80/91/45 69/92/45
f 79/93/46 68/82/46 73/85/46
f 67/83/47 66/86/47 71/89/47 72/84/47
f 65/87/48 64/90/48 69/92/48 70/88/48
f 69/92/49 80/94/49 74/95/49
f 79/96/50 73/85/50 78/97/50
f 72/84/51 71/89/51 76/98/51 77/99/51
f 73/85/52 72/84/52 77/99/52 78/97/52
f 71/89/53 70/88/53 75/100/53 76/98/53
f 70/88/54 69/92/54 74/95/54 75/100/54
f 84/101/55 83/102/55 66/86/55 67/83/55
f 82/103/56 81/104/56 64/90/56 65/87/56
f 85/105/57 84/101/57 67/83/57 68/82/57
f 83/102/58 82/103/58 65/87/58 66/86/58
f 81/104/59 80/106/59 64/90/59
f 79/107/60 85/105/60 68/82/60
f 79/107/61 86/108/61 85/105/61
f 85/105/62 86/108/62 84/101/62
o Sphere.003_Sphere.006
v 0.291945 1.870456 -0.780088
v 0.247836 1.510224 -1.036205
v 0.267465 1.018136 -1.166590
v 0.247836 0.526049 -1.036205
v 0.194207 0.165816 -0.679986
v 0.676727 1.870456 -0.473342
v 0.914297 1.510224 -0.504906
v 1.037029 1.018136 -0.553099
v 0.914297 0.526049 -0.504906
v 0.578989 0.165816 -0.373241
v 0.505730 1.870456 0.113363
v 0.787410 1.510224 0.337916
v 0.890512 1.018136 0.420108
v 0.787410 0.526049 0.337916
v 0.505730 0.165816 0.113363
v 0.120948 0.063678 -0.193383
v 0.337726 1.992452 -0.458805
v -0.210086 1.870456 -0.643594
v -0.545513 1.510224 -0.724682
v -0.648615 1.018136 -0.806874
v -0.545513 0.526049 -0.724682
v -0.263833 0.165816 -0.500129
vt 0.666667 0.166667
vt 0.666667 0.333333
vt 0.500000 0.333333
vt 0.500000 0.166667
vt 0.666667 0.500000
vt 0.666667 0.666667
vt 0.500000 0.666667
vt 0.500000 0.500000
vt 0.666667 0.833333
vt 0.583333 1.000000
vt 0.500000 0.833333
vt 0.583333 0.000000
vt 0.416667 1.000000
vt 0.333333 0.833333
vt 0.416667 0.000000
vt 0.333333 0.166667
vt 0.333333 0.500000
vt 0.333333 0.333333
vt 0.333333 0.666667
vt 0.833333 0.333333
vt 0.833333 0.500000
vt 0.833333 0.666667
vt 0.833333 0.833333
vt 0.833333 0.166667
vt 0.750000 1.000000
vt 0.750000 0.000000
vn 0.4712 -0.6547 -0.5911
vn 0.6072 0.2260 -0.7617
vn 0.2995 0.8770 -0.3757
vn 0.1453 -0.9725 -0.1822
vn 0.6072 -0.2260 -0.7617
vn 0.5621 0.4324 -0.7050
vn 0.3407 0.9349 0.0993
vn 0.2305 -0.9725 0.0347
vn 0.9633 -0.2260 0.1450
vn 0.7475 -0.6547 0.1125
vn 0.9633 0.2260 0.1450
vn 0.7793 0.6052 0.1624
vn -0.3560 -0.2260 -0.9067
vn -0.2785 0.5236 -0.8052
vn -0.2763 -0.6547 -0.7036
vn -0.3560 0.2260 -0.9067
vn -0.0929 0.9351 -0.3418
vn -0.0852 -0.9725 -0.2169
g Sphere.003_Sphere.006_Material.002
usemtl Material.002
s off
f 91/109/63 90/110/63 95/111/63 96/112/63
f 89/113/64 88/114/64 93/115/64 94/116/64
f 87/117/65 103/118/65 92/119/65
f 102/120/66 91/109/66 96/112/66
f 90/110/67 89/113/67 94/116/67 95/111/67
f 88/114/68 87/117/68 92/119/68 93/115/68
f 92/119/69 103/121/69 97/122/69
f 102/123/70 96/112/70 101/124/70
f 95/111/71 94/116/71 99/125/71 100/126/71
f 96/112/72 95/111/72 100/126/72 101/124/72
f 94/116/73 93/115/73 98/127/73 99/125/73
f 93/115/74 92/119/74 97/122/74 98/127/74
f 107/128/75 106/129/75 89/113/75 90/110/75
f 105/130/76 104/131/76 87/117/76 88/114/76
f 108/132/77 107/128/77 90/110/77 91/109/77
f 106/129/78 105/130/78 88/114/78 89/113/78
f 104/131/79 103/133/79 87/117/79
f 102/134/80 108/132/80 91/109/80
